<?xml version="1.0" encoding="UTF-8" standalone="no"?>
<!-- Created with Inkscape (http://www.inkscape.org/) -->

<svg
   xmlns:dc="http://purl.org/dc/elements/1.1/"
   xmlns:cc="http://creativecommons.org/ns#"
   xmlns:rdf="http://www.w3.org/1999/02/22-rdf-syntax-ns#"
   xmlns:svg="http://www.w3.org/2000/svg"
   xmlns="http://www.w3.org/2000/svg"
   xmlns:sodipodi="http://sodipodi.sourceforge.net/DTD/sodipodi-0.dtd"
   xmlns:inkscape="http://www.inkscape.org/namespaces/inkscape"
   width="210mm"
   height="140.825mm"
   viewBox="0 0 210 140.82499"
   version="1.1"
   id="svg4741"
   inkscape:version="0.92.1 r"
   sodipodi:docname="mini-cthullu-click.svg"
   inkscape:export-filename="/home/oswald/Desktop/mini-cthullu.png"
   inkscape:export-xdpi="7.1895823"
   inkscape:export-ydpi="7.1895823">
  <defs
     id="defs4735" />
  <sodipodi:namedview
     id="base"
     pagecolor="#36393e"
     bordercolor="#666666"
     borderopacity="1.0"
     inkscape:pageopacity="0"
     inkscape:pageshadow="2"
     inkscape:zoom="0.5"
     inkscape:cx="172.1287"
     inkscape:cy="269.47757"
     inkscape:document-units="mm"
     inkscape:current-layer="layer1"
     showgrid="false"
     inkscape:window-width="1366"
     inkscape:window-height="699"
     inkscape:window-x="0"
     inkscape:window-y="24"
     inkscape:window-maximized="1"
     showguides="true"
     inkscape:guide-bbox="true"
     inkscape:snap-intersection-paths="true"
     inkscape:object-paths="true"
     inkscape:snap-smooth-nodes="true"
     units="in"
     width="7.5in"
     scale-x="0.9"
     inkscape:measure-start="914.286,125.714"
     inkscape:measure-end="917.143,125.714" />
  <metadata
     id="metadata4738">
    <rdf:RDF>
      <cc:Work
         rdf:about="">
        <dc:format>image/svg+xml</dc:format>
        <dc:type
           rdf:resource="http://purl.org/dc/dcmitype/StillImage" />
        <dc:title></dc:title>
      </cc:Work>
    </rdf:RDF>
  </metadata>
  <g
     inkscape:label="Layer 1"
     inkscape:groupmode="layer"
     id="layer1"
     transform="translate(0,-156.17501)">
    <path
       style="color:#000000;font-style:normal;font-variant:normal;font-weight:normal;font-stretch:normal;font-size:medium;line-height:normal;font-family:sans-serif;font-variant-ligatures:normal;font-variant-position:normal;font-variant-caps:normal;font-variant-numeric:normal;font-variant-alternates:normal;font-feature-settings:normal;text-indent:0;text-align:start;text-decoration:none;text-decoration-line:none;text-decoration-style:solid;text-decoration-color:#000000;letter-spacing:normal;word-spacing:normal;text-transform:none;writing-mode:lr-tb;direction:ltr;text-orientation:mixed;dominant-baseline:auto;baseline-shift:baseline;text-anchor:start;white-space:normal;shape-padding:0;clip-rule:nonzero;display:inline;overflow:visible;visibility:visible;opacity:1;isolation:auto;mix-blend-mode:normal;color-interpolation:sRGB;color-interpolation-filters:linearRGB;solid-color:#000000;solid-opacity:1;vector-effect:none;fill:#4a4d50;fill-opacity:0.99526066;fill-rule:nonzero;stroke:#000000;stroke-width:18.89763804;stroke-linecap:butt;stroke-linejoin:miter;stroke-miterlimit:4;stroke-dasharray:none;stroke-dashoffset:0;stroke-opacity:0;paint-order:normal;color-rendering:auto;image-rendering:auto;shape-rendering:auto;text-rendering:auto;enable-background:accumulate"
       d="M 400.82422 14.910156 C 399.29487 14.903523 397.76766 14.913639 396.24219 14.9375 C 304.13067 13.621355 199.9974 65.325888 176.88477 158.29297 C 172.4502 176.13034 160.27523 199.59593 151.64062 172.65625 C 142.69167 153.76337 181.09493 118.40321 145.06055 122.30273 C 144.33959 122.38097 143.58818 122.47438 142.80664 122.58398 C 114.39025 126.57985 87.408767 132.35803 63.664062 150.11523 C 30.394321 174.99568 22.99787 215.88338 22.488281 253.75391 C 21.662564 279.56415 23.651652 309.91391 42.839844 329.06055 C 63.15172 331.55685 46.493967 296.49599 64.228516 277.13086 C 77.723387 262.39524 58.462549 304.05869 72.744141 316.91211 C 97.078795 338.8133 78.056697 280.12163 102.4375 278.03711 C 101.29171 280.47608 109.72999 343.4602 129.21289 307.43359 C 143.64872 276.50595 186.92328 266.37818 201.34375 305.6582 C 208.34761 324.73605 213.75752 320.05422 196.86523 311.37695 C 160.37425 296.01571 115.13378 331.37687 125.07617 370.80078 C 132.55614 413.19419 193.54389 427.02812 219.69922 393.48633 C 234.74652 376.66543 236.19966 349.6988 223.01562 331.39258 C 241.22575 352.33774 271.93401 358.51082 254.90625 391.28711 C 246.57738 416.32897 241.88729 432.36093 225.32031 459.56445 C 211.9846 480.10059 248.64946 494.52921 273.00977 475.61914 C 304.44967 452.08497 282.65785 393.32258 310.01172 385.18945 C 336.41868 377.3379 335.33268 397.53504 330.61328 425.00586 C 326.0928 451.31882 325.97915 513.68819 362.64844 510.02734 C 388.49517 491.32292 358.03167 449.96232 368.26562 430.75586 C 378.49957 411.54936 396.0476 376.42504 408.56445 399.32422 C 424.02748 427.61334 441.63644 461.33152 415.85156 491.14258 C 392.66579 524.904 449.60779 520.85967 459.9668 491.73047 C 460.06053 491.46666 460.15381 491.20255 460.24414 490.93945 C 470.92304 459.96796 459.90859 434.73776 446.92969 410.60352 C 440.40732 385.76537 486.31239 376.72869 495.83789 384.27539 C 528.43726 410.10257 489.73633 448.20239 502.56836 486.26953 C 514.92284 522.92003 554.49181 501.18618 535.83398 469.78711 C 519.33616 442.023 567.03849 403.61786 540.11914 376.12305 C 521.5646 357.17186 557.41656 342.84725 567.28516 335.58203 C 547.42062 368.36421 576.48043 414.86926 615.04297 412.47461 C 653.26915 414.64289 683.26457 368.69623 662.57227 335.39258 C 646.73431 305.50581 602.11362 298.9487 577.95703 322.38086 C 595.82943 300.59653 608.19055 261.94085 641.8418 285.13672 C 658.75401 295.08406 680.25025 343.63439 689.05859 299.67188 C 689.62337 282.40559 686.78207 268.62525 702.39844 289.48828 C 710.71189 300.59484 703.75026 342.77524 723.06055 313.95312 C 735.0771 296.01749 710.90534 253.15969 737.16992 287.16992 C 747.83231 300.97673 733.47192 351.39224 758.76172 320.71094 C 778.17477 281.97792 774.14606 235.70774 763.51758 195.30273 C 754.80633 162.18629 723.13405 136.03412 691.19141 128.625 C 673.41893 124.50267 614.04542 107.63216 638.72656 144.2207 C 652.84839 160.58821 631.48061 205.85947 619.94727 175.73633 C 600.48626 76.090096 497.173 15.328026 400.82422 14.910156 z M 277.08008 221.82031 C 300.14535 230.35146 286.23879 306.87511 267.99609 270.83984 C 265.00928 255.73383 262.18463 231.40164 277.08008 221.82031 z M 516.58984 221.82031 C 539.74576 230.32077 525.76008 306.89322 507.50391 270.83789 C 504.51702 255.73157 501.69405 231.40194 516.58984 221.82031 z "
       transform="matrix(0.26458333,0,0,0.26458333,0,156.17501)"
       id="path5384" />
    <path
       style="color:#000000;font-style:normal;font-variant:normal;font-weight:normal;font-stretch:normal;font-size:medium;line-height:normal;font-family:sans-serif;font-variant-ligatures:normal;font-variant-position:normal;font-variant-caps:normal;font-variant-numeric:normal;font-variant-alternates:normal;font-feature-settings:normal;text-indent:0;text-align:start;text-decoration:none;text-decoration-line:none;text-decoration-style:solid;text-decoration-color:#000000;letter-spacing:normal;word-spacing:normal;text-transform:none;writing-mode:lr-tb;direction:ltr;text-orientation:mixed;dominant-baseline:auto;baseline-shift:baseline;text-anchor:start;white-space:normal;shape-padding:0;clip-rule:nonzero;display:inline;overflow:visible;visibility:visible;opacity:0;isolation:auto;mix-blend-mode:normal;color-interpolation:sRGB;color-interpolation-filters:linearRGB;solid-color:#000000;solid-opacity:1;vector-effect:none;fill:#5eba5f;fill-opacity:0.99487179;fill-rule:nonzero;stroke:#000000;stroke-width:5;stroke-linecap:butt;stroke-linejoin:miter;stroke-miterlimit:4;stroke-dasharray:none;stroke-dashoffset:0;stroke-opacity:0;paint-order:normal;color-rendering:auto;image-rendering:auto;shape-rendering:auto;text-rendering:auto;enable-background:accumulate"
       d="m 40.345784,188.45791 c -0.737624,3.54841 -5.614087,17.85497 4.709781,16.64228 -0.782231,7.36115 0.431155,14.90009 3.349607,21.69437 -7.690804,-1.05199 -13.855128,4.58243 -17.368298,10.80747 -4.652194,-2.86388 1.921216,-17.18837 -5.974682,-9.80618 -4.758289,2.01742 -3.646225,16.17686 -5.957034,5.3459 -0.70919,-3.55184 5.2912,-14.28708 -1.808686,-7.95878 -5.565188,2.4659 -5.055589,13.75947 -6.173932,13.94131 -5.510054,-9.47988 -3.8513787,-21.2045 -1.8675808,-31.47789 2.1663428,-8.70082 10.4313828,-14.4793 18.3200698,-17.61261 4.23425,-0.6621 8.486837,-1.38995 12.770755,-1.57587 z"
       id="path5380"
       inkscape:connector-curvature="0" />
    <path
       style="color:#000000;font-style:normal;font-variant:normal;font-weight:normal;font-stretch:normal;font-size:medium;line-height:normal;font-family:sans-serif;font-variant-ligatures:normal;font-variant-position:normal;font-variant-caps:normal;font-variant-numeric:normal;font-variant-alternates:normal;font-feature-settings:normal;text-indent:0;text-align:start;text-decoration:none;text-decoration-line:none;text-decoration-style:solid;text-decoration-color:#000000;letter-spacing:normal;word-spacing:normal;text-transform:none;writing-mode:lr-tb;direction:ltr;text-orientation:mixed;dominant-baseline:auto;baseline-shift:baseline;text-anchor:start;white-space:normal;shape-padding:0;clip-rule:nonzero;display:inline;overflow:visible;visibility:visible;opacity:0;isolation:auto;mix-blend-mode:normal;color-interpolation:sRGB;color-interpolation-filters:linearRGB;solid-color:#000000;solid-opacity:1;vector-effect:none;fill:#5eba5f;fill-opacity:0.99487179;fill-rule:nonzero;stroke:#000000;stroke-width:5;stroke-linecap:butt;stroke-linejoin:miter;stroke-miterlimit:4;stroke-dasharray:none;stroke-dashoffset:0;stroke-opacity:0;paint-order:normal;color-rendering:auto;image-rendering:auto;shape-rendering:auto;text-rendering:auto;enable-background:accumulate"
       d="m 169.67059,188.57152 c 8.04893,0.36571 16.45796,1.42277 22.6111,7.17956 10.45188,6.96984 10.27676,20.63935 10.18671,31.79708 0.29387,3.26741 -3.39807,14.11627 -4.3889,11.08069 1.76239,-5.35917 -5.13373,-16.8639 -9.22647,-14.36569 3.17507,2.39583 2.00908,15.00437 0.23341,12.37196 1.69853,-5.70938 -11.5642,-17.10827 -8.03764,-5.59083 0.28993,4.32032 -2.66766,9.83718 -4.92556,2.81845 -2.32993,-6.00517 -11.85393,-6.44441 -14.4385,-8.09371 2.60638,-6.50577 3.66098,-13.64266 2.93148,-20.61924 10.57246,1.74266 5.92444,-12.98836 5.05347,-16.57758 z"
       id="path5378"
       inkscape:connector-curvature="0" />
    <path
       style="color:#000000;font-style:normal;font-variant:normal;font-weight:normal;font-stretch:normal;font-size:medium;line-height:normal;font-family:sans-serif;font-variant-ligatures:normal;font-variant-position:normal;font-variant-caps:normal;font-variant-numeric:normal;font-variant-alternates:normal;font-feature-settings:normal;text-indent:0;text-align:start;text-decoration:none;text-decoration-line:none;text-decoration-style:solid;text-decoration-color:#000000;letter-spacing:normal;word-spacing:normal;text-transform:none;writing-mode:lr-tb;direction:ltr;text-orientation:mixed;dominant-baseline:auto;baseline-shift:baseline;text-anchor:start;white-space:normal;shape-padding:0;clip-rule:nonzero;display:inline;overflow:visible;visibility:visible;opacity:0;isolation:auto;mix-blend-mode:normal;color-interpolation:sRGB;color-interpolation-filters:linearRGB;solid-color:#000000;solid-opacity:1;vector-effect:none;fill:#5eba5f;fill-opacity:1;fill-rule:nonzero;stroke:#000000;stroke-width:5;stroke-linecap:butt;stroke-linejoin:miter;stroke-miterlimit:4;stroke-dasharray:none;stroke-dashoffset:0;stroke-opacity:0;paint-order:normal;color-rendering:auto;image-rendering:auto;shape-rendering:auto;text-rendering:auto;enable-background:accumulate"
       d="m 46.898752,237.68008 c 9.49422,-0.61547 16.542419,11.3613 10.571038,19.0783 -5.653697,8.86931 -21.19351,6.12396 -23.042808,-4.37319 -1.795829,-7.56413 4.879805,-14.94857 12.47177,-14.70511 z"
       id="path5364"
       inkscape:connector-curvature="0" />
    <path
       style="color:#000000;font-style:normal;font-variant:normal;font-weight:normal;font-stretch:normal;font-size:medium;line-height:normal;font-family:sans-serif;font-variant-ligatures:normal;font-variant-position:normal;font-variant-caps:normal;font-variant-numeric:normal;font-variant-alternates:normal;font-feature-settings:normal;text-indent:0;text-align:start;text-decoration:none;text-decoration-line:none;text-decoration-style:solid;text-decoration-color:#000000;letter-spacing:normal;word-spacing:normal;text-transform:none;writing-mode:lr-tb;direction:ltr;text-orientation:mixed;dominant-baseline:auto;baseline-shift:baseline;text-anchor:start;white-space:normal;shape-padding:0;clip-rule:nonzero;display:inline;overflow:visible;visibility:visible;opacity:0;isolation:auto;mix-blend-mode:normal;color-interpolation:sRGB;color-interpolation-filters:linearRGB;solid-color:#000000;solid-opacity:1;vector-effect:none;fill:#5eba5f;fill-opacity:1;fill-rule:nonzero;stroke:#000000;stroke-width:5;stroke-linecap:butt;stroke-linejoin:miter;stroke-miterlimit:4;stroke-dasharray:none;stroke-dashoffset:0;stroke-opacity:0;paint-order:normal;color-rendering:auto;image-rendering:auto;shape-rendering:auto;text-rendering:auto;enable-background:accumulate"
       d="m 162.73188,237.68015 c 9.49481,-0.61455 16.52223,11.3642 10.56261,19.07827 -5.64839,8.87274 -21.18721,6.11968 -23.03441,-4.37319 -1.79584,-7.56414 4.87985,-14.94854 12.4718,-14.70508 z"
       id="path5362"
       inkscape:connector-curvature="0" />
    <path
       style="color:#000000;font-style:normal;font-variant:normal;font-weight:normal;font-stretch:normal;font-size:medium;line-height:normal;font-family:sans-serif;font-variant-ligatures:normal;font-variant-position:normal;font-variant-caps:normal;font-variant-numeric:normal;font-variant-alternates:normal;font-feature-settings:normal;text-indent:0;text-align:start;text-decoration:none;text-decoration-line:none;text-decoration-style:solid;text-decoration-color:#000000;letter-spacing:normal;word-spacing:normal;text-transform:none;writing-mode:lr-tb;direction:ltr;text-orientation:mixed;dominant-baseline:auto;baseline-shift:baseline;text-anchor:start;white-space:normal;shape-padding:0;clip-rule:nonzero;display:inline;overflow:visible;visibility:visible;opacity:0;isolation:auto;mix-blend-mode:normal;color-interpolation:sRGB;color-interpolation-filters:linearRGB;solid-color:#000000;solid-opacity:1;vector-effect:none;fill:#5eba5f;fill-opacity:0.99743593;fill-rule:nonzero;stroke:#000000;stroke-width:5;stroke-linecap:butt;stroke-linejoin:miter;stroke-miterlimit:4;stroke-dasharray:none;stroke-dashoffset:0;stroke-opacity:0;paint-order:normal;color-rendering:auto;image-rendering:auto;shape-rendering:auto;text-rendering:auto;enable-background:accumulate"
       d="m 139.18614,251.15551 c 8.5125,8.10871 0.77483,18.05002 0.86154,27.29276 5.09368,3.42106 -1.93901,12.31864 -4.72607,6.08541 -6.57164,-8.62703 3.16441,-17.86785 -1.49447,-26.58617 -4.25877,-4.83506 2.65452,-4.09244 5.359,-6.792 z"
       id="path5360"
       inkscape:connector-curvature="0" />
    <path
       style="color:#000000;font-style:normal;font-variant:normal;font-weight:normal;font-stretch:normal;font-size:medium;line-height:normal;font-family:sans-serif;font-variant-ligatures:normal;font-variant-position:normal;font-variant-caps:normal;font-variant-numeric:normal;font-variant-alternates:normal;font-feature-settings:normal;text-indent:0;text-align:start;text-decoration:none;text-decoration-line:none;text-decoration-style:solid;text-decoration-color:#000000;letter-spacing:normal;word-spacing:normal;text-transform:none;writing-mode:lr-tb;direction:ltr;text-orientation:mixed;dominant-baseline:auto;baseline-shift:baseline;text-anchor:start;white-space:normal;shape-padding:0;clip-rule:nonzero;display:inline;overflow:visible;visibility:visible;opacity:0;isolation:auto;mix-blend-mode:normal;color-interpolation:sRGB;color-interpolation-filters:linearRGB;solid-color:#000000;solid-opacity:1;vector-effect:none;fill:#5eba5f;fill-opacity:0.99743593;fill-rule:nonzero;stroke:#000000;stroke-width:5;stroke-linecap:butt;stroke-linejoin:miter;stroke-miterlimit:4;stroke-dasharray:none;stroke-dashoffset:0;stroke-opacity:0;paint-order:normal;color-rendering:auto;image-rendering:auto;shape-rendering:auto;text-rendering:auto;enable-background:accumulate"
       d="m 71.527189,251.76956 c 5.698793,2.18451 9.479548,4.1005 5.970578,10.39923 0.338077,9.35542 -4.297936,17.84634 -13.25934,21.14734 -10.207211,-6.86126 9.154683,-10.95747 4.235577,-20.34358 -0.06726,-3.92598 1.307947,-7.74215 3.053185,-11.20299 z"
       id="path5358"
       inkscape:connector-curvature="0" />
    <path
       style="color:#000000;font-style:normal;font-variant:normal;font-weight:normal;font-stretch:normal;font-size:medium;line-height:normal;font-family:sans-serif;font-variant-ligatures:normal;font-variant-position:normal;font-variant-caps:normal;font-variant-numeric:normal;font-variant-alternates:normal;font-feature-settings:normal;text-indent:0;text-align:start;text-decoration:none;text-decoration-line:none;text-decoration-style:solid;text-decoration-color:#000000;letter-spacing:normal;word-spacing:normal;text-transform:none;writing-mode:lr-tb;direction:ltr;text-orientation:mixed;dominant-baseline:auto;baseline-shift:baseline;text-anchor:start;white-space:normal;shape-padding:0;clip-rule:nonzero;display:inline;overflow:visible;visibility:visible;opacity:0;isolation:auto;mix-blend-mode:normal;color-interpolation:sRGB;color-interpolation-filters:linearRGB;solid-color:#000000;solid-opacity:1;vector-effect:none;fill:#5eba5f;fill-opacity:0.99743593;fill-rule:nonzero;stroke:#000000;stroke-width:5;stroke-linecap:butt;stroke-linejoin:miter;stroke-miterlimit:4;stroke-dasharray:none;stroke-dashoffset:0;stroke-opacity:0;paint-order:normal;color-rendering:auto;image-rendering:auto;shape-rendering:auto;text-rendering:auto;enable-background:accumulate"
       d="m 91.689488,259.08901 c 5.742835,0.0663 8.527652,1.1835 4.844956,6.68864 -4.230726,7.15865 1.943111,15.58854 -0.57121,21.88001 -7.604964,2.1752 -5.978846,-12.79148 -7.113263,-17.86762 -0.154025,-3.84012 2.872942,-6.80606 2.839517,-10.70103 z"
       id="path5356"
       inkscape:connector-curvature="0" />
    <path
       style="color:#000000;font-style:normal;font-variant:normal;font-weight:normal;font-stretch:normal;font-size:medium;line-height:normal;font-family:sans-serif;font-variant-ligatures:normal;font-variant-position:normal;font-variant-caps:normal;font-variant-numeric:normal;font-variant-alternates:normal;font-feature-settings:normal;text-indent:0;text-align:start;text-decoration:none;text-decoration-line:none;text-decoration-style:solid;text-decoration-color:#000000;letter-spacing:normal;word-spacing:normal;text-transform:none;writing-mode:lr-tb;direction:ltr;text-orientation:mixed;dominant-baseline:auto;baseline-shift:baseline;text-anchor:start;white-space:normal;shape-padding:0;clip-rule:nonzero;display:inline;overflow:visible;visibility:visible;opacity:0;isolation:auto;mix-blend-mode:normal;color-interpolation:sRGB;color-interpolation-filters:linearRGB;solid-color:#000000;solid-opacity:1;vector-effect:none;fill:#5eba5f;fill-opacity:0.99743593;fill-rule:nonzero;stroke:#000000;stroke-width:5;stroke-linecap:butt;stroke-linejoin:miter;stroke-miterlimit:4;stroke-dasharray:none;stroke-dashoffset:0;stroke-opacity:0;paint-order:normal;color-rendering:auto;image-rendering:auto;shape-rendering:auto;text-rendering:auto;enable-background:accumulate"
       d="m 116.87465,259.30396 c -2.39357,7.63055 7.60468,12.21256 4.94046,19.98877 1.31051,5.62463 -10.86495,15.77176 -11.44225,7.24377 8.13686,-7.53538 -0.25078,-16.67023 -0.65622,-25.12186 -0.86773,-2.76923 5.72526,-0.93388 7.15801,-2.11068 z"
       id="path4616"
       inkscape:connector-curvature="0" />
  </g>
</svg>
